<svg width="278" height="58" viewBox="0 0 278 58" fill="none" xmlns="http://www.w3.org/2000/svg">
<g clip-path="url(#clip0_1398_12410)">
<path fill-rule="evenodd" clip-rule="evenodd" d="M27.8569 12.8811L27.8668 0.00111803L26.4233 0L26.4134 12.88C26.4125 14.0427 27.1854 15.0248 28.2455 15.3378L28.2405 19.893C27.9939 20.0994 27.8369 20.4097 27.8365 20.7567C27.836 21.3788 28.3392 21.8836 28.9605 21.8841C29.5818 21.8847 30.0859 21.3809 30.0865 20.7587C30.0868 20.4117 29.9303 20.1011 29.684 19.8943L29.6889 15.3394C30.75 15.0286 31.5255 14.0473 31.5264 12.8843L31.5363 0.00469627L30.0928 0.00357824L30.0829 12.8832C30.0824 13.4965 29.587 13.9938 28.9753 13.9966C28.9731 13.9966 28.9709 13.9966 28.9687 13.9966C28.9665 13.9966 28.9643 13.9966 28.9621 13.9966C28.3503 13.9923 27.8564 13.4946 27.8569 12.8811ZM16.7984 18.3852C17.2286 18.8172 17.9254 18.8216 18.3616 18.3971C18.365 18.3935 18.3685 18.3901 18.3719 18.3866C18.3735 18.3851 18.375 18.3835 18.3766 18.382C18.3785 18.3801 18.3804 18.3782 18.3824 18.3764C18.807 17.9408 18.8043 17.2427 18.3732 16.8105L18.3732 16.8104L9.28483 7.69611L10.3063 6.67488L19.3947 15.7892C20.2157 16.6125 20.36 17.8552 19.8295 18.8261L23.0429 22.0506C23.3631 22.0225 23.6929 22.1311 23.9379 22.3769C24.3773 22.8177 24.3756 23.531 23.9361 23.9702C23.4967 24.4094 22.7843 24.4097 22.3449 23.9689C22.0997 23.7229 21.9919 23.392 22.0209 23.0713L18.8078 19.8471C17.8373 20.3762 16.5968 20.2295 15.7766 19.4061L15.7764 19.4059L6.68792 10.292L7.70938 9.27074L16.798 18.3848L16.7984 18.3852ZM157.208 17.1499C157.991 17.1499 158.643 16.8793 159.165 16.338C159.687 15.7971 159.948 15.1157 159.948 14.2942C159.948 13.4735 159.687 12.7921 159.165 12.2504C158.643 11.7099 157.991 11.4385 157.208 11.4385C156.387 11.4385 155.707 11.7099 155.167 12.2504C154.626 12.7921 154.356 13.4735 154.356 14.2942C154.356 15.1157 154.626 15.7971 155.167 16.338C155.707 16.8793 156.387 17.1499 157.208 17.1499ZM146.749 14.4853C145.072 14.5229 143.534 15.2884 142.136 16.7813C140.86 18.1441 139.679 20.3892 138.698 23.0259V14.7231H137.915L131.037 16.9631V17.7466H131.54C132.919 17.7466 133.869 18.0364 134.392 18.6146C134.914 19.1938 135.175 20.0987 135.175 21.3306V39.1362C135.175 40.2564 134.886 41.0779 134.308 41.6004C133.729 42.1236 132.639 42.5155 131.037 42.7758V43.5041H144.458V42.7758C142.257 42.4776 140.748 42.076 139.928 41.5724C139.108 41.0683 138.698 40.2564 138.698 39.1362V24.5856C139.488 22.6863 140.548 20.9401 141.772 19.8328C143.114 18.6201 144.569 17.9763 146.134 17.9007C146.618 17.8642 147.159 17.9203 147.756 18.0689C148.352 18.2186 148.893 18.4428 149.377 18.7411L149.937 14.8773C149.601 14.7287 149.116 14.617 148.483 14.5414C147.848 14.4669 147.271 14.4488 146.749 14.4853ZM92.9125 36.2633C91.9986 37.9557 90.8633 39.2816 89.5019 40.2321C88.0845 41.2214 86.6307 41.7159 85.1401 41.7159C83.6108 41.7159 82.3805 41.231 81.4492 40.2602C80.5169 39.2897 80.0507 38.0021 80.0507 36.3968C80.0507 35.0532 80.3305 33.933 80.8899 33.0374C81.4492 32.1414 82.3805 31.3664 83.6859 30.7134C84.9906 30.0604 86.7979 29.4535 89.1101 28.8937L92.9125 27.9944V36.2633ZM96.4565 39.4206V27.3555L96.4358 27.4491V25.7582C96.4358 23.9581 96.3714 22.172 95.7159 20.4778C95.4353 19.7525 95.0781 19.0497 94.6396 18.4049C94.0968 17.6051 93.4292 16.8946 92.6293 16.3408C91.2886 15.4127 89.5881 14.7697 87.9645 14.6237C85.1158 14.3678 82.5492 14.7232 80.0507 16.437C78.7033 17.3614 77.4796 18.5992 76.9582 19.9583C76.5837 20.9339 76.309 22.7797 76.7476 23.9552L80.6892 23.1926C80.5135 20.7455 81.2276 18.323 83.416 16.9691C86.4227 15.1096 90.133 16.4621 91.6914 19.4926C92.689 21.4324 92.9125 23.6104 92.9125 25.7582V26.4252L88.7746 27.3816L87.6003 27.6619C84.7667 28.3713 82.53 29.1552 80.8899 30.0135C79.249 30.8726 78.0743 31.8708 77.3666 33.0086C76.6581 34.1479 76.3042 35.5384 76.3042 37.1806C76.3042 39.234 77.0219 40.932 78.4573 42.2759C79.8923 43.6195 81.6908 44.2917 83.8535 44.2917C85.7547 44.2917 87.5351 43.694 89.194 42.4997C90.7874 41.3527 92.0243 39.7178 92.9125 37.6065C92.9125 37.6065 92.9125 43.4691 92.921 43.4691L92.9125 43.5078H100.595V42.78C99.2525 42.5562 98.2273 42.2203 97.5196 41.7723C96.8107 41.3243 96.4565 40.5404 96.4565 39.4206ZM158.941 19.3692V39.4163C158.941 40.5361 159.295 41.3204 160.004 41.7683C160.711 42.216 161.737 42.5519 163.079 42.776V43.5039H151.28V42.776C152.622 42.5519 153.647 42.216 154.356 41.7683C155.063 41.3204 155.418 40.5361 155.418 39.4163V25.9766C155.418 24.7447 155.147 23.8306 154.607 23.233C154.066 22.6364 153.125 22.3565 151.783 22.393H151.28V21.6091L158.158 19.3692H158.941ZM173.536 26.2579L179.128 28.5535C180.955 29.3005 182.38 30.2245 183.406 31.3255C184.431 32.4269 184.962 33.8922 185 35.7206C185.037 37.2888 184.655 38.726 183.854 40.0324C183.051 41.3395 181.897 42.3752 180.386 43.1399C178.877 43.9047 177.133 44.2878 175.158 44.2878C172.958 44.2878 170.917 43.7926 169.034 42.804C167.152 41.8155 165.67 40.4244 164.589 38.6324L168.503 36.3368C169.062 38.2781 169.966 39.8182 171.215 40.9564C172.464 42.0954 173.908 42.6639 175.549 42.6639C177.451 42.6639 178.988 42.1234 180.163 41.0401C181.337 39.9579 181.905 38.6884 181.869 37.2327C181.831 34.769 180.395 32.9401 177.562 31.7451L172.194 29.5055C170.143 28.6472 168.55 27.6952 167.413 26.6498C166.275 25.6049 165.688 24.2237 165.651 22.5062C165.614 20.1545 166.434 18.27 168.112 16.8512C169.79 15.4327 172.026 14.723 174.822 14.723C177.618 14.723 179.818 15.1905 181.421 16.123C183.023 17.0566 184.198 18.1388 184.944 19.3706L181.197 21.6663C180.6 20.024 179.743 18.7269 178.625 17.7748C177.506 16.8232 176.183 16.3472 174.655 16.3472C172.865 16.3472 171.439 16.7863 170.377 17.6627C169.314 18.5403 168.783 19.7065 168.783 21.1622C168.783 22.3945 169.183 23.3933 169.985 24.1584C170.786 24.9235 171.971 25.6237 173.536 26.2579ZM218.703 36.6727C218.013 38.4643 217.035 39.8643 215.768 40.8724C214.5 41.8801 213.046 42.3841 211.406 42.3841C209.205 42.3841 207.416 41.6194 206.037 40.0881C204.658 38.558 203.661 36.4725 203.046 34.3074C202.43 32.1427 202.123 30.0708 202.123 28.0916C202.123 25.8151 202.467 23.7897 203.157 22.0166C203.846 20.2442 204.825 18.8626 206.093 17.873C207.36 16.8844 208.814 16.3892 210.455 16.3892C212.617 16.3892 214.398 17.1547 215.795 18.6849C217.193 20.2161 218.2 22.0542 218.815 24.2005C219.43 26.3472 219.738 28.3913 219.738 30.3315C219.738 32.6091 219.393 34.8807 218.703 36.6727ZM217.529 16.3052C215.646 15.0925 213.475 14.4852 211.014 14.4852C208.74 14.4852 206.633 15.1293 204.695 16.4173C202.757 17.7048 201.209 19.516 200.054 21.8485C198.898 24.1817 198.32 26.8601 198.32 29.8835C198.32 32.6091 198.842 35.2823 199.886 37.4286C200.929 39.5756 202.383 41.2555 204.248 42.4678C206.112 43.6809 208.255 44.2878 210.679 44.2878C212.99 44.2878 215.125 43.6529 217.082 42.3841C219.039 41.1154 220.595 39.3238 221.751 37.0086C222.906 34.6945 223.485 31.7872 223.485 28.7637C223.485 26.0017 222.962 23.5379 221.919 21.3724C220.875 19.2081 219.411 17.5186 217.529 16.3052ZM250.239 23.9622V39.4162C250.239 40.536 250.593 41.3203 251.302 41.7683C252.009 42.2159 253.035 42.5518 254.377 42.776V43.5038H242.578V42.776C243.92 42.5518 244.945 42.2159 245.654 41.7683C246.362 41.3203 246.716 40.536 246.716 39.4162V24.186C246.716 21.9461 246.185 20.2857 245.123 19.2025C244.06 18.1203 242.615 17.579 240.789 17.579C239.259 17.579 237.815 17.9986 236.455 18.8385C235.165 19.6342 233.851 20.8798 232.512 22.5626V39.4162C232.512 40.536 232.866 41.3203 233.575 41.7683C234.283 42.2159 235.309 42.5518 236.65 42.776V43.5038H224.851V42.776C226.193 42.5518 227.218 42.2159 227.927 41.7683C228.635 41.3203 228.989 40.536 228.989 39.4162V21.3303C228.989 20.0984 228.718 19.1844 228.178 18.5867C227.637 17.9901 226.697 17.7103 225.354 17.7468H224.851V16.9629L231.73 14.7229H232.512V21.1762C234.013 19.0859 235.486 17.5219 236.93 16.4869C238.57 15.311 240.285 14.7229 242.075 14.7229C243.529 14.7229 244.871 15.0688 246.101 15.759C247.331 16.4504 248.328 17.4861 249.093 18.8666C249.857 20.2481 250.239 21.9461 250.239 23.9622ZM260.944 18.8808C262.323 17.1452 264.3 16.2773 266.872 16.2773C269.183 16.2773 270.889 17.1452 271.989 18.8808C273.088 20.6167 273.75 22.978 273.974 25.9638H258.484C258.744 22.978 259.565 20.6167 260.944 18.8808ZM273.415 39.6122C272.072 40.4898 270.469 40.9282 268.605 40.9282C265.586 40.9282 263.153 39.7339 261.308 37.3446C259.462 34.9561 258.502 31.5267 258.428 27.532H278C278 25.2179 277.609 23.062 276.826 21.0643C276.043 19.0681 274.877 17.4723 273.331 16.2773C271.783 15.083 269.928 14.4853 267.767 14.4853C265.306 14.4853 263.097 15.1011 261.14 16.3333C259.183 17.5648 257.653 19.3568 256.554 21.7085C255.455 24.0605 254.905 26.8414 254.905 30.0514C254.905 32.5904 255.417 35.1703 256.443 37.3166C257.467 39.4633 258.903 41.1616 260.748 42.4119C262.594 43.6622 264.672 44.2879 266.984 44.2879C269.556 44.2879 271.811 43.5501 273.75 42.076C275.688 40.6015 277.03 38.7078 277.776 36.3926L277.161 36.1128C276.005 37.5684 274.757 38.7358 273.415 39.6122ZM124.663 14.7231V39.4204C124.663 40.5402 125.041 41.3241 125.749 41.7721C126.457 42.2201 127.482 42.556 128.824 42.7802V43.5076H121.142L121.151 43.4693H121.142V39.9595L121.14 39.9599V37.8349C119.638 39.9256 118.166 41.4893 116.722 42.5239C115.081 43.6997 113.367 44.2878 111.578 44.2878C110.123 44.2878 108.782 43.942 107.551 43.2518C106.321 42.5615 105.323 41.5258 104.559 40.1442C103.795 38.7637 103.413 37.0647 103.413 35.0485V21.3305C103.413 20.0986 103.142 19.1845 102.602 18.5868C102.061 17.9902 101.12 17.71 99.7781 17.7465H99.2751V16.963L106.153 14.7231H106.936V34.8251C106.936 37.0647 107.467 38.7261 108.53 39.8083C109.592 40.8912 111.037 41.4321 112.864 41.4321C114.392 41.4321 115.836 41.0122 117.197 40.1722C118.486 39.3765 119.8 38.1318 121.14 36.4482V21.3305C121.14 20.0986 120.869 19.1845 120.329 18.5868C119.788 17.9902 118.847 17.71 117.505 17.7465H117.002V16.963L123.88 14.7231H124.663ZM30.0679 45.1189L30.058 57.9989L31.5015 58L31.5114 45.12C31.5123 43.9572 30.7392 42.975 29.6791 42.6621L29.684 38.1074C29.9309 37.9009 30.0881 37.5905 30.0884 37.2433C30.089 36.6212 29.5858 36.1164 28.9645 36.1158C28.3432 36.1153 27.839 36.6191 27.8385 37.2412C27.8382 37.5881 27.9944 37.8985 28.2405 38.1054L28.2356 42.6607C27.1747 42.9716 26.3993 43.9528 26.3984 45.1157L26.3885 57.9953L27.832 57.9964L27.8419 45.1168C27.8424 44.502 28.3403 44.0037 28.9541 44.0034L28.9559 44.0034H28.9577C29.5718 44.005 30.0684 44.5037 30.0679 45.1189ZM18.3615 41.1797C18.7964 40.7452 18.7972 40.0396 18.363 39.6041C17.9283 39.1682 17.2237 39.1675 16.7887 39.6024L16.7887 39.6024L7.68615 48.7026L6.66623 47.6798L15.7688 38.5796C16.5911 37.7574 17.8321 37.6133 18.8017 38.1446L22.0219 34.9272C21.9937 34.6066 22.1022 34.2761 22.3477 34.0307C22.7879 33.5908 23.5003 33.5925 23.9389 34.0325C24.3776 34.4725 24.3779 35.1859 23.9377 35.6258C23.6921 35.8712 23.3618 35.9792 23.0416 35.9503L19.8214 39.1676C20.3501 40.1395 20.2029 41.3816 19.3812 42.2027L19.381 42.2029L10.2787 51.3034L9.25874 50.2806L18.3613 41.1799L18.3615 41.1797ZM12.8644 30.1069L0.00111658 30.097L0 31.5423L12.8633 31.5523C14.0245 31.5532 15.0054 30.7792 15.3179 29.7178L19.8672 29.7228C20.0734 29.9698 20.3832 30.1271 20.7299 30.1274C21.3512 30.1279 21.8553 29.6241 21.8559 29.002C21.8564 28.3799 21.3532 27.8751 20.7319 27.8745C20.3853 27.8742 20.0752 28.0308 19.8686 28.2774L15.3195 28.2725C15.0091 27.2101 14.0292 26.4335 12.8677 26.4326L0.00469019 26.4227L0.00357361 27.8681L12.8665 27.878C13.4807 27.8785 13.9784 28.3773 13.9785 28.9921L13.9785 28.9937V28.9952C13.977 29.6101 13.4789 30.1074 12.8644 30.1069ZM39.5634 16.8199C39.1302 17.2527 39.1277 17.9545 39.5567 18.3903C39.5585 18.3921 39.5603 18.3939 39.5621 18.3956C39.5638 18.3973 39.5655 18.399 39.5671 18.4007C40.0023 18.8315 40.703 18.8304 41.1362 18.3972L41.1362 18.3972L50.2388 9.29704L51.2587 10.3199L42.1562 19.42C41.3338 20.2422 40.0929 20.3863 39.1233 19.855L35.9031 23.0724C35.9313 23.393 35.8228 23.7235 35.5773 23.9689C35.1371 24.4088 34.4247 24.4071 33.9861 23.9671C33.5475 23.5271 33.5472 22.8137 33.9874 22.3738C34.2329 22.1284 34.5632 22.0204 34.8835 22.0493L38.1035 18.8321C37.5748 17.8602 37.722 16.618 38.5437 15.7969L38.5439 15.7968L47.6462 6.69624L48.6662 7.71903L39.5636 16.8197L39.5634 16.8199ZM45.0601 27.893L57.9234 27.903L57.9246 26.4576L45.0612 26.4477C43.8999 26.4468 42.919 27.2209 42.6065 28.2825L38.0576 28.2776C37.8515 28.0304 37.5415 27.873 37.1947 27.8727C36.5734 27.8721 36.0693 28.376 36.0687 28.9981C36.0682 29.6202 36.5714 30.125 37.1927 30.1255C37.5391 30.1258 37.8491 29.9693 38.0557 29.7229L42.6052 29.7279C42.9157 30.7901 43.8956 31.5664 45.0569 31.5673L57.9199 31.5773L57.921 30.1319L45.058 30.1219C44.4442 30.1215 43.9466 29.6231 43.9461 29.0087L43.9461 29.0066V29.0044C43.9478 28.3897 44.4458 27.8926 45.0601 27.893ZM41.1262 39.6147C40.6969 39.1836 40.0022 39.1783 39.5658 39.6C39.5636 39.6024 39.5614 39.6047 39.5591 39.607C39.557 39.6091 39.5549 39.6113 39.5528 39.6134C39.5484 39.6178 39.5439 39.6221 39.5394 39.6264C39.1176 40.0622 39.1212 40.7581 39.5514 41.1894L39.5514 41.1894L48.6398 50.3038L47.6183 51.325L38.5299 42.2107C37.7089 41.3874 37.5646 40.1446 38.0951 39.1738L34.8817 35.9493C34.5616 35.9774 34.2317 35.8688 33.9867 35.623C33.5473 35.1823 33.549 34.4689 33.9885 34.0298C34.4279 33.5906 35.1404 33.5903 35.5797 34.031C35.8249 34.277 35.9327 34.6079 35.9037 34.9286L39.1168 38.1528C40.0873 37.6237 41.3278 37.7704 42.148 38.5938L42.1482 38.594L51.2367 47.7079L50.2152 48.7291L41.1266 39.615L41.1262 39.6147Z" fill="white"/>
</g>
<defs>
<clipPath id="clip0_1398_12410">
<rect width="278" height="58" fill="white"/>
</clipPath>
</defs>
</svg>
